<?xml version="1.0" encoding="UTF-8" standalone="no"?>
<svg
   xmlns:dc="http://purl.org/dc/elements/1.1/"
   xmlns:cc="http://creativecommons.org/ns#"
   xmlns:rdf="http://www.w3.org/1999/02/22-rdf-syntax-ns#"
   xmlns:svg="http://www.w3.org/2000/svg"
   xmlns="http://www.w3.org/2000/svg"
   xmlns:sodipodi="http://sodipodi.sourceforge.net/DTD/sodipodi-0.dtd"
   xmlns:inkscape="http://www.inkscape.org/namespaces/inkscape"
   aria-hidden="true"
   focusable="false"
   data-prefix="fab"
   data-icon="facebook-square"
   class="svg-inline--fa fa-facebook-square fa-w-14"
   role="img"
   viewBox="0 0 448 512"
   version="1.1"
   id="svg921"
   sodipodi:docname="facebook1.svg"
   inkscape:version="1.0.1 (3bc2e813f5, 2020-09-07)">
  <metadata
     id="metadata927">
    <rdf:RDF>
      <cc:Work
         rdf:about="">
        <dc:format>image/svg+xml</dc:format>
        <dc:type
           rdf:resource="http://purl.org/dc/dcmitype/StillImage" />
        <dc:title></dc:title>
      </cc:Work>
    </rdf:RDF>
  </metadata>
  <defs
     id="defs925" />
  <sodipodi:namedview
     pagecolor="#ffffff"
     bordercolor="#666666"
     borderopacity="1"
     objecttolerance="10"
     gridtolerance="10"
     guidetolerance="10"
     inkscape:pageopacity="0"
     inkscape:pageshadow="2"
     inkscape:window-width="2115"
     inkscape:window-height="1424"
     id="namedview923"
     showgrid="false"
     inkscape:zoom="1.96875"
     inkscape:cx="108.44444"
     inkscape:cy="253.71429"
     inkscape:window-x="0"
     inkscape:window-y="0"
     inkscape:window-maximized="0"
     inkscape:current-layer="svg921" />
  <path
     fill="currentColor"
     d="M400 32H48A48 48 0 0 0 0 80v352a48 48 0 0 0 48 48h137.25V327.69h-63V256h63v-54.64c0-62.15 37-96.48 93.67-96.48 27.14 0 55.52 4.84 55.52 4.84v61h-31.27c-30.81 0-40.42 19.12-40.42 38.73V256h68.78l-11 71.69h-57.78V480H400a48 48 0 0 0 48-48V80a48 48 0 0 0-48-48z"
     id="path919" />
  <path
     style="fill:#00ffff;stroke-width:0.507937"
     d="M 43.4169,479.45036 C 32.458052,478.47013 21.320795,473.01968 13.64044,464.8781 9.3167411,460.29476 7.5056081,457.62281 4.8434723,451.90004 2.0946999,445.99103 1.0972796,442.26769 0.50587815,435.70791 c -0.63013969,-6.98947 -0.63013969,-352.426346 0,-359.415814 C 1.0972796,69.732311 2.0946999,66.008964 4.8434723,60.099955 7.5475302,54.287068 9.4457519,51.48569 13.683125,47.054476 c 4.297993,-4.494607 8.418589,-7.419039 14.328802,-10.169304 5.996241,-2.790299 9.696988,-3.785783 16.280169,-4.379294 6.989468,-0.63014 352.426344,-0.63014 359.415814,0 6.58317,0.593511 10.28392,1.588995 16.28016,4.379294 5.91022,2.750265 10.03081,5.674697 14.32881,10.169304 4.23737,4.431214 6.13559,7.232592 8.83965,13.045479 2.74877,5.909009 3.74619,9.632356 4.33759,16.192141 0.659,7.309601 0.65295,351.916624 -0.006,359.363934 -2.09705,23.68925 -20.14253,41.73473 -43.83178,43.83178 -3.40392,0.30133 -32.76286,0.50525 -73.11635,0.50785 L 263.11111,480 v -75.93651 -75.93651 h 28.8254 28.82539 l 5.30303,-34.66667 c 2.91666,-19.06666 5.39975,-35.29523 5.51797,-36.06348 L 331.79784,256 h -34.34336 -34.34337 l 0.007,-26.03175 c 0.006,-23.80613 0.0914,-26.44429 0.99725,-30.85714 2.19094,-10.67267 8.27645,-19.08824 16.88678,-23.35248 8.29103,-4.1061 9.10442,-4.21651 32.77596,-4.44875 l 20.95238,-0.20556 v -30.85315 -30.85314 l -8.50794,-1.1531 c -21.84507,-2.96071 -45.95028,-4.26103 -58.28569,-3.14415 -44.79482,4.05587 -73.66648,30.13441 -81.02332,73.18493 -1.6662,9.75022 -2.02178,18.29842 -2.02307,48.63492 L 184.88889,256 h -31.49206 -31.49207 v 36.06349 36.06349 h 31.49207 31.49206 V 404.06349 480 l -68.44445,-0.0698 C 78.8,479.89175 45.937605,479.67582 43.4169,479.45036 Z"
     id="path929" />
  <path
     style="fill:#00ffff;stroke-width:0.507937"
     d="M 104.88889,479.49331 C 41.209936,479.22142 40.869406,479.21454 37.004995,478.12045 25.831224,474.95696 16.707679,468.93404 10.347661,460.52259 7.2044678,456.36555 3.3134269,448.25485 1.9032713,442.92063 L 0.76190476,438.60317 V 256 73.396825 L 1.9053255,69.079365 C 3.1414373,64.411911 6.5977905,56.790705 9.2247756,52.940088 11.612409,49.440311 16.562116,44.3993 20.091842,41.872563 24.349878,38.824468 31.9314,35.268694 37.079365,33.905325 l 4.31746,-1.14342 H 224 406.60317 l 4.31746,1.14342 c 4.67228,1.23739 12.29556,4.695776 16.13928,7.321767 3.26627,2.231477 7.8997,6.679364 10.59327,10.169056 2.97648,3.856222 7.0355,12.356956 8.44355,17.683217 l 1.14137,4.31746 V 255.74603 438.09524 l -1.13627,4.4568 c -4.59836,18.03623 -17.32685,30.841 -35.28589,35.49733 -4.06122,1.05297 -5.60139,1.10562 -42.81594,1.46355 -21.23175,0.2042 -53.51746,0.39733 -71.74603,0.42918 L 263.11111,480 v -75.93651 -75.93651 h 28.91202 28.91203 l 0.28212,-1.39682 c 0.15516,-0.76826 2.57211,-16.48254 5.37099,-34.92064 2.79887,-18.43809 5.20872,-34.03809 5.35521,-34.66666 L 332.20983,256 h -34.5694 -34.56941 l 0.30644,-26.28571 c 0.32981,-28.29032 0.58862,-31.39345 3.11989,-37.40748 3.12646,-7.42815 7.91597,-12.67246 14.83894,-16.24804 7.45115,-3.84836 7.89611,-3.91183 30.79069,-4.39179 11.17461,-0.23426 20.83175,-0.44088 21.46032,-0.45915 l 1.14286,-0.0332 V 140.23087 109.2871 l -1.39683,-0.29289 c -2.35697,-0.49419 -17.18679,-2.27001 -26.03174,-3.11721 -11.67766,-1.11852 -34.8833,-1.54569 -41.6508,-0.76671 -17.18409,1.978 -31.48709,6.90275 -43.8992,15.11521 -6.89383,4.56129 -16.19626,13.86026 -20.74887,20.74116 -5.74521,8.68342 -10.31154,19.35839 -12.81312,29.954 -2.88122,12.20355 -2.93826,13.11149 -3.16741,50.4127 L 184.80922,256 h -31.45223 -31.45223 v 36.06349 36.06349 h 31.49207 31.49206 V 404.06349 480 l -8,-0.11671 c -4.4,-0.0642 -36.8,-0.23968 -72,-0.38998 z"
     id="path931" />
  <path
     style="fill:#00ffff;stroke-width:0.507937"
     d="M 104.63492,479.49328 C 41.01625,479.22045 40.881041,479.21769 36.96085,478.10909 25.621895,474.90253 15.91622,468.38733 9.8827566,459.93219 6.819295,455.63913 3.2680952,448.06634 1.9053255,442.92063 L 0.76190476,438.60317 V 256 73.396825 L 1.9032713,69.079365 C 3.3113251,63.753104 7.370334,55.25237 10.346818,51.396148 c 2.693571,-3.489692 7.327007,-7.937579 10.59327,-10.169056 3.843723,-2.625991 11.466998,-6.084377 16.139277,-7.321767 l 4.31746,-1.14342 H 224 406.60317 l 4.31746,1.14342 c 4.67228,1.23739 12.29556,4.695776 16.13928,7.321767 3.26627,2.231477 7.8997,6.679364 10.59327,10.169056 2.97648,3.856222 7.0355,12.356956 8.44355,17.683217 l 1.14137,4.31746 V 256 438.60317 l -1.1856,4.31746 c -4.97264,18.10834 -17.41005,30.5076 -35.23656,35.12848 -4.059,1.05215 -5.61249,1.10559 -42.56197,1.46395 -21.09207,0.20457 -53.37778,0.39782 -71.74603,0.42944 L 263.11111,480 v -75.93651 -75.93651 h 28.92937 28.92936 l 0.29148,-1.65079 c 0.16031,-0.90794 2.56902,-16.62222 5.35269,-34.92063 2.78366,-18.29842 5.1815,-33.78413 5.32852,-34.4127 L 332.20983,256 h -34.61564 -34.61563 l 0.36071,-26.53968 c 0.38696,-28.47095 0.61125,-31.10251 3.16885,-37.1791 3.14102,-7.46273 7.86436,-12.62578 14.85225,-16.23488 7.42419,-3.83444 7.882,-3.89961 30.76661,-4.37936 11.17461,-0.23426 20.83175,-0.44088 21.46032,-0.45915 l 1.14286,-0.0332 V 140.23087 109.2871 l -1.39683,-0.28568 c -2.45922,-0.50297 -17.37875,-2.29388 -26.03174,-3.1248 -4.60953,-0.44264 -14.78096,-0.93339 -22.60318,-1.09057 -11.64238,-0.23393 -15.44589,-0.12959 -20.96809,0.5752 -41.70465,5.32274 -68.69559,30.0794 -76.48889,70.15722 -1.9663,10.11193 -2.34824,18.34065 -2.35047,50.64029 L 184.88889,256 h -31.49206 -31.49207 v 36.06349 36.06349 h 31.49207 31.49206 V 404.06349 480 l -8.25397,-0.11668 c -4.53968,-0.0642 -36.93968,-0.23969 -72,-0.39004 z"
     id="path933" />
  <path
     style="fill:#00ffff;stroke-width:0.507937"
     d="M 102.60317,479.49301 C 41.087406,479.21962 40.876253,479.21517 36.96085,478.10851 28.315993,475.6651 21.665243,471.9848 15.540013,466.25495 9.5992645,460.69767 4.9642403,453.01515 2.1611925,444.07966 L 0.76190476,439.61905 V 256 72.380952 L 2.1604254,67.922983 C 4.9744549,58.952891 9.5340531,51.385427 15.557905,45.68748 20.893551,40.640506 27.889306,36.680513 35.920336,34.161193 l 4.460616,-1.399288 H 224 407.61905 l 4.46061,1.399288 c 13.58243,4.260784 23.77028,12.447123 29.54843,23.743337 1.52464,2.980631 3.4106,7.457176 4.19103,9.947876 l 1.41898,4.528546 0.1454,180.571428 c 0.10289,127.7701 -0.016,181.83391 -0.40642,184.88889 -0.73322,5.73655 -3.3553,13.27562 -6.40326,18.41077 -5.16472,8.70144 -14.8685,16.71486 -24.4305,20.17479 -8.35498,3.02319 -7.20538,2.97676 -83.31792,3.36507 l -69.71429,0.35566 v -76.01029 -76.01029 h 28.95238 c 15.92381,0 28.96341,-0.17142 28.97688,-0.38095 0.0135,-0.20952 2.48594,-16.38095 5.49439,-35.93651 l 5.46988,-35.55555 -34.52203,-0.13054 -34.52203,-0.13053 0.3619,-26.53613 c 0.27908,-20.46334 0.5368,-27.39491 1.12615,-30.28871 2.17266,-10.66794 7.84726,-18.4401 16.86337,-23.09674 7.4604,-3.85315 7.93962,-3.92221 30.56102,-4.40448 11.03492,-0.23526 20.69206,-0.44225 21.46031,-0.45999 l 1.39683,-0.0323 v -30.94376 -30.94377 l -1.39683,-0.28568 c -2.38503,-0.4878 -17.2207,-2.25806 -26.53968,-3.16685 -13.0769,-1.27526 -39.3886,-1.28382 -46.92197,-0.0153 -38.19354,6.43145 -63.02588,29.01695 -71.61327,65.13368 -2.88889,12.15004 -2.97475,13.49653 -3.22899,50.63434 L 184.79385,256 h -31.44454 -31.44455 v 36.06349 36.06349 h 31.49207 31.49206 V 404.06349 480 l -10.28572,-0.11636 c -5.65714,-0.064 -38.05714,-0.23978 -72,-0.39063 z"
     id="path935" />
  <path
     style="fill:#00a9b1;stroke-width:0.507937;fill-opacity:1"
     d="M 94.984127,479.48769 C 34.820809,479.17467 39.617585,479.43827 30.60426,475.94981 22.902024,472.96879 14.620718,466.56204 9.9056259,459.93651 7.0789313,455.96451 4.0398183,449.83926 2.2190565,444.44444 L 0.76190476,440.12698 V 256 71.873016 L 2.21929,67.555556 C 7.0467429,53.254369 14.787877,43.940656 26.920635,37.836234 32.416758,35.070939 37.173053,33.57976 42.400454,32.983047 45.486314,32.630793 105.98969,32.509173 227.55556,32.61086 l 180.57142,0.151045 4.31746,1.457151 c 13.77297,4.648404 23.48543,12.525312 29.15203,23.642592 1.50724,2.957046 3.3932,7.319304 4.19103,9.693908 l 1.4506,4.31746 0.1454,180.825394 c 0.10288,127.95196 -0.016,182.08782 -0.40643,185.14286 -0.7332,5.73654 -3.35529,13.27561 -6.40325,18.41077 -5.16472,8.70144 -14.8685,16.71486 -24.4305,20.17479 -8.35931,3.02476 -7.20133,2.97798 -83.31792,3.36632 l -69.71429,0.35568 V 404.1379 328.12698 h 28.95238 c 15.92381,0 28.96128,-0.17142 28.97215,-0.38095 0.0109,-0.20952 2.47789,-16.38095 5.48227,-35.93651 l 5.46251,-35.55555 -34.5155,-0.13054 -34.51551,-0.13053 0.35792,-26.53613 c 0.38943,-28.87319 0.57501,-30.92888 3.40431,-37.71074 2.97618,-7.13392 8.11176,-12.47751 15.57436,-16.20518 6.4789,-3.2363 7.62709,-3.3947 28.06321,-3.8715 10.19682,-0.23791 19.85396,-0.44655 21.46031,-0.46365 l 2.92064,-0.0311 v -30.96111 -30.96111 l -1.65079,-0.2755 c -20.1951,-3.37031 -52.47207,-5.20549 -67.12132,-3.81633 -22.12699,2.09826 -41.59014,10.73886 -55.41837,24.6028 -10.81283,10.84076 -17.65469,23.263 -21.86889,39.7057 -3.2058,12.50816 -3.35226,14.61702 -3.63733,52.37222 L 184.77555,256 h -31.4354 -31.43539 v 36.06349 36.06349 h 31.49207 31.49206 V 404.06349 480 l -17.65079,-0.11411 c -9.70794,-0.0628 -42.22223,-0.24195 -72.253973,-0.3982 z"
     id="path937" />
</svg>
