<?xml version="1.0" encoding="UTF-8" standalone="no"?>
<svg
   xmlns:dc="http://purl.org/dc/elements/1.1/"
   xmlns:cc="http://creativecommons.org/ns#"
   xmlns:rdf="http://www.w3.org/1999/02/22-rdf-syntax-ns#"
   xmlns:svg="http://www.w3.org/2000/svg"
   xmlns="http://www.w3.org/2000/svg"
   xmlns:sodipodi="http://sodipodi.sourceforge.net/DTD/sodipodi-0.dtd"
   xmlns:inkscape="http://www.inkscape.org/namespaces/inkscape"
   aria-hidden="true"
   focusable="false"
   data-prefix="fab"
   data-icon="instagram"
   class="svg-inline--fa fa-instagram fa-w-14"
   role="img"
   viewBox="0 0 448 512"
   version="1.1"
   id="svg1556"
   sodipodi:docname="instagram1.svg"
   inkscape:version="1.0.1 (3bc2e813f5, 2020-09-07)">
  <metadata
     id="metadata1562">
    <rdf:RDF>
      <cc:Work
         rdf:about="">
        <dc:format>image/svg+xml</dc:format>
        <dc:type
           rdf:resource="http://purl.org/dc/dcmitype/StillImage" />
        <dc:title></dc:title>
      </cc:Work>
    </rdf:RDF>
  </metadata>
  <defs
     id="defs1560" />
  <sodipodi:namedview
     pagecolor="#ffffff"
     bordercolor="#666666"
     borderopacity="1"
     objecttolerance="10"
     gridtolerance="10"
     guidetolerance="10"
     inkscape:pageopacity="0"
     inkscape:pageshadow="2"
     inkscape:window-width="3132"
     inkscape:window-height="1513"
     id="namedview1558"
     showgrid="false"
     inkscape:zoom="1.96875"
     inkscape:cx="224"
     inkscape:cy="253.71429"
     inkscape:window-x="0"
     inkscape:window-y="0"
     inkscape:window-maximized="0"
     inkscape:current-layer="svg1556" />
  <path
     fill="currentColor"
     d="M224.1 141c-63.6 0-114.9 51.3-114.9 114.9s51.3 114.9 114.9 114.9S339 319.5 339 255.9 287.7 141 224.1 141zm0 189.6c-41.1 0-74.7-33.5-74.7-74.7s33.5-74.7 74.7-74.7 74.7 33.5 74.7 74.7-33.6 74.7-74.7 74.7zm146.4-194.3c0 14.9-12 26.8-26.8 26.8-14.9 0-26.8-12-26.8-26.8s12-26.8 26.8-26.8 26.8 12 26.8 26.8zm76.1 27.2c-1.7-35.9-9.9-67.7-36.2-93.9-26.2-26.2-58-34.4-93.9-36.2-37-2.1-147.9-2.1-184.9 0-35.8 1.7-67.6 9.9-93.9 36.1s-34.4 58-36.2 93.9c-2.1 37-2.1 147.9 0 184.9 1.7 35.9 9.9 67.7 36.2 93.9s58 34.4 93.9 36.2c37 2.1 147.9 2.1 184.9 0 35.9-1.7 67.7-9.9 93.9-36.2 26.2-26.2 34.4-58 36.2-93.9 2.1-37 2.1-147.8 0-184.8zM398.8 388c-7.8 19.6-22.9 34.7-42.6 42.6-29.5 11.7-99.5 9-132.1 9s-102.7 2.6-132.1-9c-19.6-7.8-34.7-22.9-42.6-42.6-11.7-29.5-9-99.5-9-132.1s-2.6-102.7 9-132.1c7.8-19.6 22.9-34.7 42.6-42.6 29.5-11.7 99.5-9 132.1-9s102.7-2.6 132.1 9c19.6 7.8 34.7 22.9 42.6 42.6 11.7 29.5 9 99.5 9 132.1s2.7 102.7-9 132.1z"
     id="path1554" />
  <path
     style="fill:#00a9b1;stroke-width:0.507937"
     d="m 160,479.17153 c -14.67954,-0.3399 -33.93744,-1.28207 -40.78301,-1.99527 C 79.661003,473.05517 52.104025,459.52543 30.306933,433.52381 15.139003,415.43007 5.9758923,391.71083 2.8356127,362.4127 1.153318,346.71725 0.26604693,309.88715 0.26591441,255.74603 0.26577468,198.66262 1.1524176,164.43013 3.0617937,147.79962 6.7723911,115.48064 17.186881,91.438273 36.004346,71.750103 56.38817,50.423098 82.408066,38.570754 117.07937,34.819557 c 22.40665,-2.424246 95.57619,-3.484177 159.49206,-2.310395 47.95725,0.88071 62.79507,2.217794 81.40765,7.335908 38.45969,10.575703 67.93648,38.318448 80.12758,75.41388 5.37187,16.34568 7.37581,29.64591 8.73091,57.9474 0.90187,18.83559 0.90037,146.88876 -0.002,165.33333 -1.38559,28.32392 -3.36625,41.3486 -8.81467,57.96487 -10.90143,33.2465 -36.54333,59.94797 -69.18798,72.04694 -15.63398,5.79437 -32.47853,8.65328 -58.73775,9.96917 -10.3821,0.52026 -132.80803,1.05115 -150.09524,0.65087 z m 140.19048,-39.8042 c 31.71217,-1.64448 48.64227,-4.65904 61.4849,-10.94797 16.66745,-8.16191 30.20215,-22.60242 36.99209,-39.46779 4.87095,-12.09883 7.65861,-30.42358 8.98251,-59.04681 0.76436,-16.52599 0.37174,-148.84311 -0.4725,-159.23809 -2.19342,-27.00692 -4.94717,-40.69736 -10.47224,-52.0635 C 388.19998,101.10621 374.32685,88.148475 356.57143,81.117531 345.71205,76.81734 330.13194,74.298288 303.74603,72.57652 292.08488,71.815591 176.80668,71.477452 156.96736,72.145982 133.71883,72.929394 116.99373,74.56269 104.44868,77.274711 89.222847,80.566273 77.072442,87.160869 66.268312,97.996993 54.697884,109.60168 48.383211,121.69022 45.023758,138.66667 c -4.253131,21.49249 -5.132351,41.668 -5.135352,117.84127 -0.003,75.45665 0.860879,95.14152 5.126771,116.82539 5.987566,30.43529 26.969387,52.99057 56.192173,60.40613 10.87689,2.76011 29.45305,4.8746 50.91963,5.79609 9.59486,0.41188 139.72808,0.26403 148.0635,-0.16822 z"
     id="path1564" />
  <path
     style="fill:#00a9b1;stroke-width:0.507937"
     d="m 217.14286,370.2005 c -46.28923,-2.47281 -87.07316,-33.785 -101.77299,-78.13701 -13.4587,-40.60727 -3.39911,-84.86106 26.30054,-115.70045 17.64101,-18.31799 40.25821,-29.89963 66.32959,-33.96552 7.96358,-1.24194 24.37926,-1.24426 32.40126,-0.005 37.52023,5.79817 68.94843,28.36907 85.83513,61.64452 6.33907,12.49121 10.21062,25.49966 11.83141,39.75364 0.86887,7.64124 0.35228,24.05266 -0.99187,31.51049 -6.57877,36.50134 -28.96496,66.58071 -61.84285,83.0956 -17.90409,8.99341 -37.2201,12.91821 -58.09022,11.80331 z m 21.84127,-40.79243 c 14.79382,-3.27308 27.63245,-10.22563 38.05277,-20.60689 13.60728,-13.55627 21.02321,-30.53777 21.72771,-49.75356 0.43926,-11.98142 -1.24646,-21.85369 -5.44898,-31.91152 -14.96244,-35.8093 -55.02188,-54.39271 -91.9188,-42.64074 -23.16787,7.37915 -41.35378,25.59243 -48.71459,48.78791 -2.51189,7.91551 -3.28906,13.27797 -3.29229,22.71673 -0.004,12.82116 2.1983,22.2181 7.85864,33.52589 10.90097,21.77712 31.65777,36.7775 56.2048,40.6177 4.61563,0.72209 21.08743,0.24754 25.53074,-0.73552 z"
     id="path1566" />
  <path
     style="fill:#00a9b1;stroke-width:0.507937"
     d="m 340.26774,162.53552 c -6.2568,-0.90368 -11.28213,-3.51829 -15.63891,-8.13671 -7.74693,-8.21216 -9.56867,-19.20762 -4.8437,-29.23516 5.06609,-10.7515 16.75014,-16.95235 28.21328,-14.97309 10.15687,1.75372 18.67286,9.56873 21.34412,19.58722 0.92394,3.46522 0.86402,10.14114 -0.12114,13.49511 -3.75854,12.79603 -16.23882,21.09907 -28.95365,19.26263 z"
     id="path1568" />
</svg>
