<?xml version="1.0" encoding="UTF-8" standalone="no"?>
<svg
   xmlns:dc="http://purl.org/dc/elements/1.1/"
   xmlns:cc="http://creativecommons.org/ns#"
   xmlns:rdf="http://www.w3.org/1999/02/22-rdf-syntax-ns#"
   xmlns:svg="http://www.w3.org/2000/svg"
   xmlns="http://www.w3.org/2000/svg"
   xmlns:sodipodi="http://sodipodi.sourceforge.net/DTD/sodipodi-0.dtd"
   xmlns:inkscape="http://www.inkscape.org/namespaces/inkscape"
   aria-hidden="true"
   focusable="false"
   data-prefix="fab"
   data-icon="spotify"
   class="svg-inline--fa fa-spotify fa-w-16"
   role="img"
   viewBox="0 0 496 512"
   version="1.1"
   id="svg1534"
   sodipodi:docname="spotify1.svg"
   inkscape:version="1.0.1 (3bc2e813f5, 2020-09-07)">
  <metadata
     id="metadata1540">
    <rdf:RDF>
      <cc:Work
         rdf:about="">
        <dc:format>image/svg+xml</dc:format>
        <dc:type
           rdf:resource="http://purl.org/dc/dcmitype/StillImage" />
        <dc:title></dc:title>
      </cc:Work>
    </rdf:RDF>
  </metadata>
  <defs
     id="defs1538" />
  <sodipodi:namedview
     pagecolor="#ffffff"
     bordercolor="#666666"
     borderopacity="1"
     objecttolerance="10"
     gridtolerance="10"
     guidetolerance="10"
     inkscape:pageopacity="0"
     inkscape:pageshadow="2"
     inkscape:window-width="2543"
     inkscape:window-height="1411"
     id="namedview1536"
     showgrid="false"
     inkscape:zoom="1.96875"
     inkscape:cx="248"
     inkscape:cy="253.71429"
     inkscape:window-x="0"
     inkscape:window-y="0"
     inkscape:window-maximized="0"
     inkscape:current-layer="svg1534" />
  <path
     fill="currentColor"
     d="M248 8C111.1 8 0 119.1 0 256s111.1 248 248 248 248-111.1 248-248S384.9 8 248 8zm100.7 364.9c-4.2 0-6.8-1.3-10.7-3.6-62.4-37.6-135-39.2-206.7-24.5-3.9 1-9 2.6-11.9 2.6-9.7 0-15.8-7.7-15.8-15.8 0-10.3 6.1-15.2 13.6-16.8 81.9-18.1 165.6-16.5 237 26.2 6.1 3.9 9.7 7.4 9.7 16.5s-7.1 15.4-15.2 15.4zm26.9-65.6c-5.2 0-8.7-2.3-12.3-4.2-62.5-37-155.7-51.9-238.6-29.4-4.8 1.3-7.4 2.6-11.9 2.6-10.7 0-19.4-8.7-19.4-19.4s5.2-17.8 15.5-20.7c27.8-7.8 56.2-13.6 97.8-13.6 64.9 0 127.6 16.1 177 45.5 8.1 4.8 11.3 11 11.3 19.7-.1 10.8-8.5 19.5-19.4 19.5zm31-76.2c-5.2 0-8.4-1.3-12.9-3.9-71.2-42.5-198.5-52.7-280.9-29.7-3.6 1-8.1 2.6-12.9 2.6-13.2 0-23.3-10.3-23.3-23.6 0-13.6 8.4-21.3 17.4-23.9 35.2-10.3 74.6-15.2 117.5-15.2 73 0 149.5 15.2 205.4 47.8 7.8 4.5 12.9 10.7 12.9 22.6 0 13.6-11 23.3-23.2 23.3z"
     id="path1532" />
  <path
     style="fill:#00a9b1;stroke-width:0.507937"
     d="M 232.25397,503.30691 C 187.45875,499.87672 148.50669,486.82549 112.49019,463.17902 97.322982,453.22105 86.004378,443.99571 73.004333,430.99567 52.723804,410.71514 37.161225,388.89134 25.003251,363.68254 12.013761,336.74964 4.712093,310.77885 1.2974638,279.36508 c -0.8868523,-8.15883 -0.8868523,-38.57133 0,-46.73016 C 4.7002758,201.32986 12.137216,174.86019 24.987365,148.31746 37.274389,122.93789 52.790375,101.18333 72.994839,81.007431 113.66269,40.397065 163.72193,16.386098 221.84127,9.613078 c 9.49581,-1.1066072 32.85591,-1.5181316 43.23192,-0.761597 72.24721,5.267684 137.08785,40.551325 180.93027,98.454899 24.32694,32.12909 40.68543,70.90824 46.76164,110.85235 2.29007,15.05458 2.60102,19.67792 2.57925,38.34921 -0.0222,19.00302 -0.48587,25.08258 -3.09935,40.63492 -5.84681,34.79321 -18.94607,67.57716 -38.80275,97.11295 -15.28509,22.73576 -35.51623,43.89584 -58.00688,60.67035 -35.30872,26.33478 -75.51923,42.07071 -121.27664,47.46023 -6.51857,0.76779 -35.56634,1.40588 -41.90476,0.92052 z M 355.74519,371.40879 c 5.84138,-2.98307 8.6558,-8.42144 8.19344,-15.83238 -0.57935,-9.28619 -4.25343,-12.71436 -24.76403,-23.10647 -50.55606,-25.61525 -109.59838,-34.13137 -177.77777,-25.64224 -16.16976,2.01332 -42.74717,6.93313 -47.93083,8.87258 -6.18497,2.3141 -9.52965,7.28566 -9.87034,14.67136 -0.16442,3.56447 -0.002,4.88792 0.89453,7.26441 2.03654,5.40167 7.14155,9.23692 13.12793,9.86262 2.29594,0.23997 4.28171,-0.0293 9.25565,-1.25499 12.23787,-3.01574 31.78866,-6.23468 48.23734,-7.94205 60.2234,-6.25117 114.66076,3.5741 157.96826,28.51132 10.51928,6.05719 11.14738,6.29221 16.25396,6.08178 2.89034,-0.1191 4.43743,-0.47764 6.41186,-1.48594 z m 28.35935,-65.83603 c 3.85304,-1.89685 7.46082,-5.60564 9.32781,-9.58898 1.23946,-2.64446 1.3613,-3.44996 1.3613,-8.99965 0,-5.54969 -0.12184,-6.3552 -1.3613,-8.99966 -1.86187,-3.97241 -5.39288,-7.58278 -10.28073,-10.51178 -36.8182,-22.06298 -84.13044,-37.22727 -133.11987,-42.66694 -16.10888,-1.78868 -24.987,-2.24524 -43.68254,-2.24634 -34.42051,-0.002 -59.2757,3.16926 -90.92064,11.60066 -10.21639,2.72203 -13.33489,4.13258 -16.810772,7.6038 -3.87136,3.86616 -4.990435,7.10279 -5.012805,14.49823 -0.01691,5.59829 0.0537,5.99451 1.645349,9.23006 2.10501,4.27912 6.098818,8.04319 10.148178,9.56444 3.94571,1.48231 9.2572,1.80641 12.8237,0.7825 27.70706,-7.95442 52.36821,-11.65583 82.03175,-12.3122 57.03601,-1.26206 114.4,12.43879 160.11163,38.24116 8.92883,5.03996 11.37691,5.86472 16.57449,5.58399 3.14175,-0.1697 4.66163,-0.54716 7.16445,-1.77929 z m 27.29903,-74.76728 c 6.69237,-1.39134 13.35342,-6.50889 16.13059,-12.39278 2.61495,-5.54023 3.16096,-10.79902 1.79217,-17.26098 -2.0828,-9.83274 -6.51678,-13.79726 -26.77373,-23.93899 -41.94427,-20.99957 -90.71589,-33.4187 -151.75895,-38.64365 -13.2547,-1.13454 -62.53557,-1.30436 -75.42857,-0.25994 -27.85199,2.25619 -49.97076,5.7839 -72.12698,11.50349 -11.130671,2.87336 -13.875093,3.932 -17.652668,6.8094 -5.869353,4.47071 -8.534872,9.94817 -8.901942,18.29289 -0.282124,6.41363 0.650544,10.42159 3.417727,14.68704 2.455984,3.78575 5.501871,6.47915 9.378707,8.29334 6.596642,3.08694 11.654686,3.12546 22.393096,0.17053 21.71539,-5.97549 43.62158,-9.51522 71.11111,-11.49054 11.17946,-0.80333 44.64476,-0.79708 56.38095,0.0105 61.09773,4.20433 110.99628,17.00729 149.84127,38.44626 11.2276,6.19662 15.19637,7.22889 22.19722,5.77341 z"
     id="path1542" />
</svg>
