<?xml version="1.0" encoding="UTF-8" standalone="no"?>
<svg
   xmlns:dc="http://purl.org/dc/elements/1.1/"
   xmlns:cc="http://creativecommons.org/ns#"
   xmlns:rdf="http://www.w3.org/1999/02/22-rdf-syntax-ns#"
   xmlns:svg="http://www.w3.org/2000/svg"
   xmlns="http://www.w3.org/2000/svg"
   xmlns:sodipodi="http://sodipodi.sourceforge.net/DTD/sodipodi-0.dtd"
   xmlns:inkscape="http://www.inkscape.org/namespaces/inkscape"
   aria-hidden="true"
   focusable="false"
   data-prefix="fab"
   data-icon="twitter"
   class="svg-inline--fa fa-twitter fa-w-16"
   role="img"
   viewBox="0 0 512 512"
   version="1.1"
   id="svg1512"
   sodipodi:docname="twitter1.svg"
   inkscape:version="1.0.1 (3bc2e813f5, 2020-09-07)">
  <metadata
     id="metadata1518">
    <rdf:RDF>
      <cc:Work
         rdf:about="">
        <dc:format>image/svg+xml</dc:format>
        <dc:type
           rdf:resource="http://purl.org/dc/dcmitype/StillImage" />
        <dc:title></dc:title>
      </cc:Work>
    </rdf:RDF>
  </metadata>
  <defs
     id="defs1516" />
  <sodipodi:namedview
     pagecolor="#ffffff"
     bordercolor="#666666"
     borderopacity="1"
     objecttolerance="10"
     gridtolerance="10"
     guidetolerance="10"
     inkscape:pageopacity="0"
     inkscape:pageshadow="2"
     inkscape:window-width="2869"
     inkscape:window-height="1308"
     id="namedview1514"
     showgrid="false"
     inkscape:zoom="1.96875"
     inkscape:cx="256"
     inkscape:cy="253.71429"
     inkscape:window-x="0"
     inkscape:window-y="0"
     inkscape:window-maximized="0"
     inkscape:current-layer="svg1512" />
  <path
     fill="currentColor"
     d="M459.37 151.716c.325 4.548.325 9.097.325 13.645 0 138.72-105.583 298.558-298.558 298.558-59.452 0-114.68-17.219-161.137-47.106 8.447.974 16.568 1.299 25.34 1.299 49.055 0 94.213-16.568 130.274-44.832-46.132-.975-84.792-31.188-98.112-72.772 6.498.974 12.995 1.624 19.818 1.624 9.421 0 18.843-1.3 27.614-3.573-48.081-9.747-84.143-51.98-84.143-102.985v-1.299c13.969 7.797 30.214 12.67 47.431 13.319-28.264-18.843-46.781-51.005-46.781-87.391 0-19.492 5.197-37.36 14.294-52.954 51.655 63.675 129.3 105.258 216.365 109.807-1.624-7.797-2.599-15.918-2.599-24.04 0-57.828 46.782-104.934 104.934-104.934 30.213 0 57.502 12.67 76.67 33.137 23.715-4.548 46.456-13.32 66.599-25.34-7.798 24.366-24.366 44.833-46.132 57.827 21.117-2.273 41.584-8.122 60.426-16.243-14.292 20.791-32.161 39.308-52.628 54.253z"
     id="path1510" />
  <path
     style="fill:#00a9b1;stroke-width:0.507937"
     d="M 144,463.19007 C 105.13572,460.88344 67.204226,451.15096 32.498637,434.581 22.104998,429.61863 1.8772141,418.27093 2.4335309,417.71462 c 0.1268054,-0.12681 5.2911853,0.0248 11.4764001,0.33689 17.000106,0.85779 33.999912,-0.26613 50.729881,-3.35396 26.647157,-4.91822 52.682648,-15.26734 75.411208,-29.976 7.02139,-4.54385 15.63152,-10.83469 15.63152,-11.42089 0,-0.26139 -1.32028,-0.47526 -2.93396,-0.47526 -6.83757,0 -18.53753,-2.10099 -27.08154,-4.86308 -26.713029,-8.63574 -48.632658,-27.19325 -61.339624,-51.9311 -2.380983,-4.63529 -6.168686,-13.65544 -6.168686,-14.6903 0,-0.22642 2.342857,-0.13821 5.206349,0.19601 6.519462,0.76093 20.109598,0.85032 25.791101,0.16962 5.851947,-0.70112 15.73271,-2.62056 15.73271,-3.05624 0,-0.19482 -1.65714,-0.75273 -3.68254,-1.23979 -15.269217,-3.67187 -30.595633,-11.49896 -43.090495,-22.00598 -18.607047,-15.64682 -31.397476,-38.02709 -35.47397,-62.07121 -1.103938,-6.51128 -1.989536,-18.28571 -1.375335,-18.28571 0.188816,0 2.109656,0.88328 4.268534,1.96283 6.212633,3.10666 12.969943,5.5954 20.277847,7.46839 7.08793,1.81661 17.720783,3.43534 20.818216,3.16934 l 1.817808,-0.15612 -4.76416,-3.52404 C 57.713803,199.55128 47.218801,189.09831 42.828378,183.19511 18.833163,150.93208 15.042037,109.18783 32.85309,73.356802 c 1.452742,-2.922525 2.787275,-5.251956 2.965629,-5.176512 0.178354,0.07544 2.462467,2.651456 5.075805,5.724472 6.306308,7.415564 25.175155,26.205498 32.558835,32.422678 17.473686,14.71311 36.301621,27.38229 55.918391,37.62707 30.2721,15.8095 63.81528,26.41261 98.0079,30.98064 10.07425,1.34589 24.21563,2.59126 24.6372,2.16969 0.14336,-0.14335 -0.0979,-2.39344 -0.53615,-5.0002 -2.13344,-12.69019 -2.23037,-24.08761 -0.30473,-35.83027 9.38361,-57.221617 63.60281,-96.084658 120.57368,-86.424349 21.04181,3.567971 39.78132,12.987693 55.29575,27.795317 4.56229,4.354445 3.50242,4.24182 14.52334,1.543288 16.8459,-4.12481 37.07321,-12.082465 51.32714,-20.19268 2.06417,-1.174469 3.83404,-2.054388 3.93305,-1.955374 0.099,0.09901 -0.64127,2.285052 -1.64507,4.857862 -7.69282,19.717204 -21.25898,36.42655 -39.81878,49.044536 l -4.31746,2.93525 3.4668,-0.32225 c 13.25325,-1.23195 33.5604,-6.42322 50.06856,-12.79941 3.18413,-1.229855 5.86477,-2.16069 5.95691,-2.068519 0.26092,0.260942 -8.90196,12.286689 -13.23907,17.375449 -8.83792,10.36959 -24.2272,24.94174 -34.43201,32.60375 l -3.4169,2.56549 -0.21249,16.19315 c -0.20664,15.74651 -0.52527,20.79749 -2.11093,33.46301 -6.53097,52.16631 -27.79338,104.70601 -59.40624,146.79365 -12.42202,16.53799 -30.50216,35.84266 -44.96035,48.00542 -45.02859,37.8797 -98.36352,60.21441 -158.22222,66.25763 -16.90699,1.7069 -35.17093,2.15663 -50.53968,1.24448 z"
     id="path1520" />
</svg>
