<?xml version="1.0" encoding="UTF-8" standalone="no"?>
<svg
   xmlns:dc="http://purl.org/dc/elements/1.1/"
   xmlns:cc="http://creativecommons.org/ns#"
   xmlns:rdf="http://www.w3.org/1999/02/22-rdf-syntax-ns#"
   xmlns:svg="http://www.w3.org/2000/svg"
   xmlns="http://www.w3.org/2000/svg"
   xmlns:sodipodi="http://sodipodi.sourceforge.net/DTD/sodipodi-0.dtd"
   xmlns:inkscape="http://www.inkscape.org/namespaces/inkscape"
   aria-hidden="true"
   focusable="false"
   data-prefix="fab"
   data-icon="youtube"
   class="svg-inline--fa fa-youtube fa-w-18"
   role="img"
   viewBox="0 0 576 512"
   version="1.1"
   id="svg74"
   sodipodi:docname="youtube1.svg"
   inkscape:version="1.0.1 (3bc2e813f5, 2020-09-07)">
  <metadata
     id="metadata80">
    <rdf:RDF>
      <cc:Work
         rdf:about="">
        <dc:format>image/svg+xml</dc:format>
        <dc:type
           rdf:resource="http://purl.org/dc/dcmitype/StillImage" />
        <dc:title></dc:title>
      </cc:Work>
    </rdf:RDF>
  </metadata>
  <defs
     id="defs78" />
  <sodipodi:namedview
     pagecolor="#ffffff"
     bordercolor="#666666"
     borderopacity="1"
     objecttolerance="10"
     gridtolerance="10"
     guidetolerance="10"
     inkscape:pageopacity="0"
     inkscape:pageshadow="2"
     inkscape:window-width="2674"
     inkscape:window-height="1583"
     id="namedview76"
     showgrid="false"
     inkscape:zoom="1.96875"
     inkscape:cx="172.44444"
     inkscape:cy="256"
     inkscape:window-x="0"
     inkscape:window-y="0"
     inkscape:window-maximized="0"
     inkscape:current-layer="svg74" />
  <path
     fill="currentColor"
     d="M549.655 124.083c-6.281-23.65-24.787-42.276-48.284-48.597C458.781 64 288 64 288 64S117.22 64 74.629 75.486c-23.497 6.322-42.003 24.947-48.284 48.597-11.412 42.867-11.412 132.305-11.412 132.305s0 89.438 11.412 132.305c6.281 23.65 24.787 41.5 48.284 47.821C117.22 448 288 448 288 448s170.78 0 213.371-11.486c23.497-6.321 42.003-24.171 48.284-47.821 11.412-42.867 11.412-132.305 11.412-132.305s0-89.438-11.412-132.305zm-317.51 213.508V175.185l142.739 81.205-142.739 81.201z"
     id="path72" />
  <path
     style="fill:#a0a0a0;stroke:none;stroke-width:0.507937"
     d="M 268.19048,447.65617 C 176.84361,446.94834 102.63446,442.75446 77.41824,436.8748 55.018076,431.65177 36.732895,415.96558 28.695013,395.07692 23.240785,380.9026 18.711285,347.1349 16.512289,304.25397 12.731412,230.52598 18.456642,144.44014 28.94746,117.27596 37.275519,95.711864 55.626987,79.993683 78.426834,74.896467 107.0414,68.499292 188.14916,64.46038 288,64.46038 c 100.57672,0 180.75058,3.992407 209.57317,10.436087 22.83458,5.104982 41.1386,20.782546 49.47938,42.379493 10.47248,27.11671 16.20942,113.37885 12.43515,186.97801 -2.16031,42.12635 -6.29578,73.58313 -11.78088,89.6119 -6.25321,18.27322 -22.34682,34.07693 -41.57687,40.8279 -14.3412,5.03466 -46.94656,8.44613 -102.82836,10.75883 -28.73652,1.18928 -43.81412,1.49651 -107.17461,2.18389 -6.98412,0.0758 -19.55555,0.0846 -27.9365,0.0197 z m 35.80064,-150.51854 c 39.08898,-22.20665 71.02478,-40.54588 70.96844,-40.75385 -0.0563,-0.20797 -31.07385,-17.99567 -68.92781,-39.52823 -37.85397,-21.53255 -70.0254,-39.83631 -71.49207,-40.67502 l -2.66666,-1.52493 v 81.60342 c 0,55.80527 0.16553,81.54823 0.52361,81.42888 0.28799,-0.096 32.50551,-18.34362 71.59449,-40.55027 z"
     id="path82" />
  <path
     style="fill:#00a9b1;stroke:none;stroke-width:0.507937;fill-opacity:1"
     d="m 243.55556,447.14872 c -73.55195,-1.10131 -139.37132,-5.09447 -162.788759,-9.87613 -22.000566,-4.49235 -39.870969,-17.83205 -49.251398,-36.76465 -1.52257,-3.07302 -3.339413,-7.57396 -4.03743,-10.00209 -8.132159,-28.28867 -13.147052,-95.87167 -11.566875,-155.88051 1.495861,-56.80682 6.372734,-99.61161 13.350257,-117.17651 7.013403,-17.655216 19.74799,-30.816331 37.024598,-38.264684 9.16322,-3.95048 22.277577,-6.41864 45.460077,-8.555721 84.52616,-7.792048 265.24404,-7.926207 350.22222,-0.259992 23.4902,2.119142 36.83948,4.429223 45.51866,7.876963 18.54077,7.365178 31.99342,20.801867 39.23126,39.184744 4.58494,11.64487 7.88597,31.79799 11.00805,67.20478 0.88681,10.05697 1.81699,29.87635 2.33885,49.83402 1.61727,61.8477 -3.69661,131.38284 -12.03063,157.42753 -5.88973,18.40611 -20.84008,34.02403 -39.85062,41.63 -13.70834,5.48461 -42.2574,8.77685 -99.04096,11.42129 -40.00364,1.86298 -118.48821,2.90619 -165.5873,2.20096 z m 0.8815,-115.89952 c 36.05975,-20.35976 113.73441,-64.62613 129.02005,-73.52781 0.90617,-0.52772 1.64902,-1.11248 1.65079,-1.29947 0.004,-0.46777 -11.96302,-7.37601 -71.1079,-41.04726 -28.07619,-15.98381 -55.79048,-31.76733 -61.5873,-35.07448 l -10.53968,-6.013 v 81.7453 c 0,53.35495 0.17384,81.7453 0.50055,81.7453 0.27531,0 5.70388,-2.93786 12.06349,-6.52858 z"
     id="path84" />
</svg>
